<svg width="130" height="130" viewBox="0 0 130 130" fill="none" xmlns="http://www.w3.org/2000/svg">
<circle cx="65" cy="65" r="65" fill="#EFEFEF"/>
<path fill-rule="evenodd" clip-rule="evenodd" d="M49 47H81C82.1046 47 83 47.8954 83 49V70.2667L70.3453 67.3139C69.4514 67.1053 68.5365 67 67.6186 67H62.3814C61.4635 67 60.5486 67.1053 59.6547 67.3139L47 70.2667V49C47 47.8954 47.8954 47 49 47ZM45 49C45 46.7909 46.7909 45 49 45H81C83.2091 45 85 46.7909 85 49V81C85 83.2091 83.2091 85 81 85H49C46.7909 85 45 83.2091 45 81V49ZM59.5455 55.9091C59.5455 57.9174 57.9174 59.5455 55.9091 59.5455C53.9008 59.5455 52.2728 57.9174 52.2728 55.9091C52.2728 53.9008 53.9008 52.2727 55.9091 52.2727C57.9174 52.2727 59.5455 53.9008 59.5455 55.9091Z" fill="#CDCDCD"/>
<rect x="47" y="82" width="36" height="2" fill="#CDCDCD"/>
</svg>
